<svg version="1.1" xmlns="http://www.w3.org/2000/svg" xmlns:xlink="http://www.w3.org/1999/xlink" width="162.01278" height="125.6461"><g transform="translate(-131.28336,-62.24018)"><g data-paper-data="{&quot;isPaintingLayer&quot;:true}" fill="none" fill-rule="nonzero" stroke="none" stroke-width="none" stroke-linecap="butt" stroke-linejoin="miter" stroke-miterlimit="10" stroke-dasharray="" stroke-dashoffset="0" font-family="none" font-weight="none" font-size="none" text-anchor="none" style="mix-blend-mode: normal"><path d="M285.70833,152.33852c0.00259,0.15568 0.0039,0.31166 0.0039,0.46796c0,15.00815 -12.02257,27.20828 -26.96218,27.49485" data-paper-data="{&quot;origPos&quot;:null,&quot;index&quot;:null}" fill="none" stroke="#3f3f3f" stroke-width="15"/><path d="M138.86104,97.72992c-0.0026,-0.15568 -0.0039,-0.31166 -0.0039,-0.46796c0,-15.00815 12.02258,-27.20828 26.96219,-27.49484" data-paper-data="{&quot;origPos&quot;:null,&quot;index&quot;:null}" fill="none" stroke="#3f3f3f" stroke-width="15"/><path d="M278.28335,152.95761v-56.41667h15v56.41667z" data-paper-data="{&quot;origPos&quot;:null}" fill="#414141" stroke="none" stroke-width="0"/><path d="M258.83396,69.75455c14.93961,0.28656 26.96218,12.48669 26.96218,27.49485c0,0.1563 -0.00131,0.31228 -0.0039,0.46795" data-paper-data="{&quot;origPos&quot;:null,&quot;index&quot;:null}" fill="none" stroke="#3f3f3f" stroke-width="15"/><path d="M259.22758,77.29072l-93.98484,-0.05055l0.03093,-14.99999l93.98484,0.05055z" data-paper-data="{&quot;origPos&quot;:null,&quot;origRot&quot;:0}" fill="#414141" stroke="none" stroke-width="0"/><path d="M165.88688,180.37192c-14.93961,-0.28656 -26.96218,-12.48669 -26.96218,-27.49485c0,-0.1563 0.00131,-0.31228 0.0039,-0.46795" data-paper-data="{&quot;origPos&quot;:null,&quot;index&quot;:null}" fill="none" stroke="#3f3f3f" stroke-width="15"/><path d="M164.99326,172.83574l93.98484,0.05055l-0.03093,14.99999l-93.98484,-0.05055z" data-paper-data="{&quot;origPos&quot;:null,&quot;origRot&quot;:0,&quot;index&quot;:null}" fill="#414141" stroke="none" stroke-width="0"/><path d="M131.28336,153.20761v-55.91667h15v55.91667z" data-paper-data="{&quot;origPos&quot;:null}" fill="#414141" stroke="none" stroke-width="0"/><path d="M292.11013,137.50503v-1.10255h1.11885v1.10255z" data-paper-data="{&quot;origPos&quot;:null}" fill="#ffffff" stroke="none" stroke-width="0"/><path d="M292.11156,135.16651v-1.10255h1.11885v1.10255z" data-paper-data="{&quot;origPos&quot;:null}" fill="#ffffff" stroke="none" stroke-width="0"/><path d="M279.47363,136.29811v-1.16631h1.14247v1.16631z" data-paper-data="{&quot;origPos&quot;:null}" fill="#ffffff" stroke="none" stroke-width="0"/><path d="M280.65243,137.51727v-1.16629h1.14248v1.16629z" data-paper-data="{&quot;origPos&quot;:null}" fill="#ffffff" stroke="none" stroke-width="0"/><path d="M278.31323,137.49887v-1.16631h1.14248v1.16631z" data-paper-data="{&quot;origPos&quot;:null}" fill="#ffffff" stroke="none" stroke-width="0"/><path d="M278.33626,135.12032v-1.16631h1.14247v1.16631z" data-paper-data="{&quot;origPos&quot;:null}" fill="#ffffff" stroke="none" stroke-width="0"/><path d="M280.61647,135.15388v-1.16629h1.14248v1.16629z" data-paper-data="{&quot;origPos&quot;:null}" fill="#ffffff" stroke="none" stroke-width="0"/><path d="M281.78166,136.34273v-1.16632h1.14248v1.16632z" data-paper-data="{&quot;origPos&quot;:null}" fill="#ffffff" stroke="none" stroke-width="0"/><path d="M282.92529,135.20013v-1.16631h1.14247v1.16631z" data-paper-data="{&quot;origPos&quot;:null}" fill="#ffffff" stroke="none" stroke-width="0"/><path d="M282.9398,137.53254v-1.16631h1.14247v1.16631z" data-paper-data="{&quot;origPos&quot;:null}" fill="#ffffff" stroke="none" stroke-width="0"/><path d="M284.08343,136.35726v-1.16631h1.14247v1.16631z" data-paper-data="{&quot;origPos&quot;:null}" fill="#ffffff" stroke="none" stroke-width="0"/><path d="M285.22706,137.53254v-1.16631h1.14248v1.16631z" data-paper-data="{&quot;origPos&quot;:null}" fill="#ffffff" stroke="none" stroke-width="0"/><path d="M285.1944,135.18202v-1.16631h1.14247v1.16631z" data-paper-data="{&quot;origPos&quot;:null}" fill="#ffffff" stroke="none" stroke-width="0"/><path d="M286.38521,136.33914v-1.16631h1.14247v1.16631z" data-paper-data="{&quot;origPos&quot;:null}" fill="#ffffff" stroke="none" stroke-width="0"/><path d="M287.53453,135.16386v-1.16631h1.14247v1.16631z" data-paper-data="{&quot;origPos&quot;:null}" fill="#ffffff" stroke="none" stroke-width="0"/><path d="M287.53962,137.51521v-1.16631h1.14247v1.16631z" data-paper-data="{&quot;origPos&quot;:null}" fill="#ffffff" stroke="none" stroke-width="0"/><path d="M290.95088,136.35265v-1.16629h1.14247v1.16629z" data-paper-data="{&quot;origPos&quot;:null}" fill="#ffffff" stroke="none" stroke-width="0"/><path d="M288.67927,136.33452v-1.16629h1.14247v1.16629z" data-paper-data="{&quot;origPos&quot;:null}" fill="#ffffff" stroke="none" stroke-width="0"/><path d="M289.81199,137.54706v-1.16632h1.14247v1.16632z" data-paper-data="{&quot;origPos&quot;:null}" fill="#ffffff" stroke="none" stroke-width="0"/><path d="M289.81199,135.17585v-1.16631h1.14247v1.16631z" data-paper-data="{&quot;origPos&quot;:null}" fill="#ffffff" stroke="none" stroke-width="0"/></g></g></svg>