<svg version="1.1" xmlns="http://www.w3.org/2000/svg" xmlns:xlink="http://www.w3.org/1999/xlink" width="162.11727" height="84.17543"><defs><linearGradient x1="185.18861" y1="243.66199" x2="185.18861" y2="306.72976" gradientUnits="userSpaceOnUse" id="color-1"><stop offset="0" stop-color="#393939"/><stop offset="1" stop-color="#ff1500"/></linearGradient><linearGradient x1="220.53683" y1="241.66199" x2="220.53683" y2="304.72977" gradientUnits="userSpaceOnUse" id="color-2"><stop offset="0" stop-color="#3b3b3b"/><stop offset="1" stop-color="#ff1500"/></linearGradient><linearGradient x1="255.11812" y1="257.82639" x2="255.11812" y2="305.96636" gradientUnits="userSpaceOnUse" id="color-3"><stop offset="0" stop-color="#383838"/><stop offset="1" stop-color="#ff1500"/></linearGradient><linearGradient x1="299.2913" y1="259.063" x2="299.2913" y2="322.83742" gradientUnits="userSpaceOnUse" id="color-4"><stop offset="0" stop-color="#3b3b3b"/><stop offset="1" stop-color="#ff1500"/></linearGradient></defs><g transform="translate(-160.21372,-240.16199)"><g data-paper-data="{&quot;isPaintingLayer&quot;:true}" fill="none" fill-rule="evenodd" stroke="#000000" stroke-width="3" stroke-linecap="round" stroke-linejoin="round" stroke-miterlimit="10" stroke-dasharray="" stroke-dashoffset="0" font-family="none" font-weight="none" font-size="none" text-anchor="none" style="mix-blend-mode: normal"><path d="M161.71372,243.66199h26.50391c4.26306,0 7.74083,0.64775 10.43329,1.94326c2.69246,1.29551 4.7679,2.9149 6.22632,4.85816c1.45842,1.94326 2.45407,4.06319 2.98695,6.35978c0.53288,2.29658 0.79932,4.41651 0.79932,6.35977c0,1.94326 -0.26644,4.04847 -0.79932,6.31561c-0.53288,2.26714 -1.52853,4.37235 -2.98695,6.31561c-1.45842,1.94326 -3.53385,3.54793 -6.22631,4.814c-2.69246,1.26606 -6.17023,1.8991 -10.43329,1.8991h-15.98648v24.20248h-10.51742zM172.23114,273.51757h15.39751c1.17795,0 2.38395,-0.17666 3.618,-0.52998c1.23405,-0.35332 2.36992,-0.92747 3.40765,-1.72244c1.03772,-0.79497 1.87911,-1.85493 2.52418,-3.17989c0.64507,-1.32495 0.9676,-2.98851 0.9676,-4.99066c0,-2.06104 -0.28046,-3.76875 -0.84139,-5.12315c-0.56093,-1.3544 -1.31819,-2.42908 -2.27177,-3.22405c-0.95358,-0.79497 -2.04739,-1.33967 -3.28143,-1.63411c-1.23405,-0.29443 -2.55223,-0.44165 -3.95455,-0.44165h-15.56579z" data-paper-data="{&quot;origPos&quot;:null}" fill="url(#color-1)"/><path d="M215.74088,241.66199h9.59189v63.06778h-9.59189z" data-paper-data="{&quot;origPos&quot;:null}" fill="url(#color-2)"/><path d="M272.19842,294.57178c0,1.23663 0.15425,2.11992 0.46276,2.6499c0.30851,0.52998 0.91151,0.79497 1.80899,0.79497c0.28046,0 0.61703,0 1.00968,0c0.39265,0 0.84139,-0.05889 1.34623,-0.17666v6.97808c-0.33656,0.11777 -0.77128,0.25027 -1.30416,0.39749c-0.53288,0.14721 -1.07979,0.27971 -1.64072,0.39748c-0.56093,0.11777 -1.12185,0.20611 -1.68278,0.26499c-0.56093,0.05889 -1.03772,0.08833 -1.43037,0.08833c-1.96326,0 -3.58995,-0.41221 -4.88009,-1.23663c-1.29014,-0.82441 -2.13152,-2.26714 -2.52417,-4.32818c-1.90716,1.94326 -4.24905,3.35655 -7.02565,4.23985c-2.7766,0.8833 -5.45503,1.32496 -8.03531,1.32496c-1.96326,0 -3.84237,-0.27972 -5.63734,-0.83914c-1.79497,-0.55943 -3.37959,-1.38384 -4.75387,-2.47324c-1.37428,-1.0894 -2.46809,-2.47324 -3.28143,-4.15152c-0.81334,-1.67828 -1.22003,-3.63626 -1.22003,-5.87396c0,-2.82656 0.49081,-5.12315 1.47244,-6.88975c0.98163,-1.7666 2.27177,-3.15045 3.87042,-4.15153c1.59865,-1.00107 3.39362,-1.72244 5.38492,-2.16409c1.9913,-0.44165 3.99663,-0.78025 6.01597,-1.01579c1.73888,-0.35332 3.39362,-0.6036 4.96422,-0.75081c1.57061,-0.14721 2.9589,-0.39749 4.1649,-0.75081c1.206,-0.35332 2.15957,-0.89802 2.86073,-1.63411c0.70117,-0.73609 1.05174,-1.84021 1.05174,-3.31238c0,-1.29551 -0.29449,-2.35548 -0.88346,-3.17989c-0.58898,-0.82441 -1.31818,-1.45745 -2.18762,-1.8991c-0.86944,-0.44165 -1.83704,-0.73609 -2.90281,-0.8833c-1.06577,-0.14721 -2.07543,-0.22083 -3.02901,-0.22083c-2.69246,0 -4.90814,0.58886 -6.64702,1.7666c-1.73888,1.17774 -2.72051,3.00323 -2.94488,5.47647h-9.59189c0.16827,-2.94434 0.8414,-5.38814 2.01935,-7.3314c1.17795,-1.94326 2.67843,-3.50377 4.50145,-4.68151c1.82302,-1.17774 3.88444,-2.00215 6.18425,-2.47324c2.29981,-0.47109 4.65572,-0.70664 7.06771,-0.70664c2.13153,0 4.23501,0.23555 6.31045,0.70664c2.07544,0.47109 3.94052,1.23662 5.59527,2.29658c1.65474,1.05997 2.98695,2.42908 3.99662,4.10736c1.00968,1.67828 1.51451,3.72459 1.51451,6.13895zM262.60652,281.85222c-1.45842,1.00107 -3.25339,1.60466 -5.38492,1.81076c-2.13153,0.20611 -4.26306,0.51526 -6.39459,0.92747c-1.00967,0.17666 -1.99131,0.42693 -2.94488,0.75081c-0.95358,0.32387 -1.79497,0.76553 -2.52418,1.32495c-0.72921,0.55943 -1.30415,1.29551 -1.72485,2.20826c-0.4207,0.91275 -0.63105,2.01687 -0.63105,3.31239c0,1.11885 0.30851,2.06103 0.92553,2.82656c0.61702,0.76553 1.36026,1.36912 2.2297,1.81077c0.86944,0.44165 1.82302,0.75081 2.86074,0.92747c1.03772,0.17666 1.97727,0.26499 2.81867,0.26499c1.06577,0 2.21567,-0.14722 3.44971,-0.44165c1.23405,-0.29443 2.39798,-0.79497 3.49178,-1.50161c1.09381,-0.70664 2.00532,-1.60467 2.73453,-2.69407c0.72921,-1.0894 1.09381,-2.42908 1.09381,-4.01902z" data-paper-data="{&quot;origPos&quot;:null}" fill="url(#color-3)"/><path d="M277.75162,259.063h10.51742l11.35882,34.09547h0.16828l11.02226,-34.09547h10.01259l-16.91202,48.13997c-0.7853,2.06104 -1.55658,4.03375 -2.31383,5.91813c-0.75725,1.88438 -1.68279,3.54793 -2.7766,4.99066c-1.09381,1.44272 -2.45407,2.59101 -4.08076,3.44487c-1.62669,0.85386 -3.70213,1.28079 -6.22631,1.28079c-2.24372,0 -4.45939,-0.17666 -6.64702,-0.52998v-8.4797c0.7853,0.11777 1.54255,0.25027 2.27177,0.39748c0.72921,0.14721 1.48647,0.22082 2.27177,0.22082c1.12185,0 2.04739,-0.14721 2.7766,-0.44165c0.72921,-0.29443 1.3322,-0.72136 1.80899,-1.28079c0.47679,-0.55943 0.88347,-1.2219 1.22003,-1.98743c0.33656,-0.76553 0.64507,-1.64883 0.92554,-2.6499l1.09381,-3.53321z" data-paper-data="{&quot;origPos&quot;:null}" fill="url(#color-4)"/></g></g></svg>