<svg version="1.1" xmlns="http://www.w3.org/2000/svg" xmlns:xlink="http://www.w3.org/1999/xlink" width="466.70833" height="353.45556"><g transform="translate(-10.6,-2.74444)"><g data-paper-data="{&quot;isPaintingLayer&quot;:true}" fill="none" fill-rule="nonzero" stroke="none" stroke-width="none" stroke-linecap="butt" stroke-linejoin="miter" stroke-miterlimit="10" stroke-dasharray="" stroke-dashoffset="0" font-family="none" font-weight="none" font-size="none" text-anchor="none" style="mix-blend-mode: normal"><path d="M475.73333,2.74444v1.55556h-0.93333v-1.55556z" data-paper-data="{&quot;origPos&quot;:null}" fill="#9966ff" stroke-width="0"/><path d="M476.05833,347.11944v-1.5h1.25v1.5z" fill="#9966ff" stroke-width="0"/><path d="M11.2,356.2v-2.1h0.4v2.1z" fill="#9966ff" stroke-width="0"/><path d="M10.6,5v-1.6h0.8v1.6z" fill="#9966ff" stroke-width="0"/><path d="M243.88889,179.94444c0,2.17846 -1.71624,3.94444 -3.83333,3.94444c-2.11709,0 -3.83333,-1.76599 -3.83333,-3.94444c0,-2.17846 1.71624,-3.94444 3.83333,-3.94444c2.11709,0 3.83333,1.76599 3.83333,3.94444z" data-paper-data="{&quot;origPos&quot;:null}" fill="#9966ff" stroke-width="0"/><text transform="translate(237.70204,179.83161) scale(0.0271,0.0271)" font-size="40" xml:space="preserve" data-paper-data="{&quot;origPos&quot;:null}" fill="#810000" fill-rule="nonzero" stroke="none" stroke-width="1" stroke-linecap="butt" stroke-linejoin="miter" stroke-miterlimit="10" stroke-dasharray="" stroke-dashoffset="0" font-family="Sans Serif" font-weight="normal" text-anchor="start" style="mix-blend-mode: normal"><tspan x="0" dy="0">copyright</tspan></text><text transform="translate(236.94204,180.92161) scale(0.02276,0.02276)" font-size="40" xml:space="preserve" data-paper-data="{&quot;origPos&quot;:null}" fill="#810000" fill-rule="nonzero" stroke="none" stroke-width="1" stroke-linecap="butt" stroke-linejoin="miter" stroke-miterlimit="10" stroke-dasharray="" stroke-dashoffset="0" font-family="Sans Serif" font-weight="normal" text-anchor="start" style="mix-blend-mode: normal"><tspan x="0" dy="0">StratfordJames</tspan></text></g></g></svg>