<svg version="1.1" xmlns="http://www.w3.org/2000/svg" xmlns:xlink="http://www.w3.org/1999/xlink" width="64.56502" height="27.37501" viewBox="0,0,64.56502,27.37501"><defs><linearGradient x1="215.2765" y1="105.35259" x2="249.53941" y2="105.35259" gradientTransform="translate(-1145.02792,-571.89437) scale(5.31887,5.31887)" gradientUnits="userSpaceOnUse" id="color-1"><stop offset="0" stop-color="#168200"/><stop offset="1" stop-color="#007842"/></linearGradient><linearGradient x1="213.7053" y1="114.20985" x2="247.96821" y2="114.20985" gradientTransform="translate(-1136.6697,-619.00431) scale(5.31887,5.31887)" gradientUnits="userSpaceOnUse" id="color-2"><stop offset="0" stop-color="#168200"/><stop offset="1" stop-color="#007842"/></linearGradient></defs><g transform="translate(-208,-95.82499)"><g data-paper-data="{&quot;isPaintingLayer&quot;:true}" fill-rule="nonzero" stroke="none" stroke-linecap="butt" stroke-linejoin="miter" stroke-miterlimit="10" stroke-dasharray="" stroke-dashoffset="0" style="mix-blend-mode: normal"><path d="M208,123.2c0,0 0,-8.33157 0,-15.67984c1.21703,-1.44462 2.41698,-2.8032 3.62967,-3.89974c2.05491,-1.85809 4.09159,-3.59057 6.15886,-5.31577c2.06523,-0.8145 4.22124,-1.63427 6.40702,-2.47966h29.11501c0.93995,0.54598 1.86918,1.10641 2.803,1.65999c3.25267,1.92821 6.45452,3.54615 9.85659,4.61093c2.016,2.43404 4.33049,4.7864 6.59487,7.04391v14.06016z" data-paper-data="{&quot;origPos&quot;:null}" fill="#730000" stroke-width="0"/><text transform="translate(215.2767,107.52186) scale(0.18801,0.18801)" font-size="40" xml:space="preserve" data-paper-data="{&quot;origPos&quot;:null}" fill="url(#color-1)" fill-rule="nonzero" stroke="none" stroke-width="1" stroke-linecap="butt" stroke-linejoin="miter" stroke-miterlimit="10" stroke-dasharray="" stroke-dashoffset="0" font-family="Sans Serif" font-weight="normal" text-anchor="start" style="mix-blend-mode: normal"><tspan x="0" dy="0">copyright</tspan></text><text transform="translate(213.70527,116.379) scale(0.18801,0.18801)" font-size="40" xml:space="preserve" data-paper-data="{&quot;origPos&quot;:null}" fill="url(#color-2)" fill-rule="nonzero" stroke="none" stroke-width="1" stroke-linecap="butt" stroke-linejoin="miter" stroke-miterlimit="10" stroke-dasharray="" stroke-dashoffset="0" font-family="Sans Serif" font-weight="normal" text-anchor="start" style="mix-blend-mode: normal"><tspan x="0" dy="0">pacuscat</tspan></text></g></g></svg>